<?xml version="1.0" standalone="no"?>
<!DOCTYPE svg PUBLIC "-//W3C//DTD SVG 20010904//EN"
 "http://www.w3.org/TR/2001/REC-SVG-20010904/DTD/svg10.dtd">
<svg version="1.0" xmlns="http://www.w3.org/2000/svg"
 width="500.000000pt" height="500.000000pt" viewBox="0 0 500.000000 500.000000"
 preserveAspectRatio="xMidYMid meet">

<g transform="translate(0.000000,500.000000) scale(0.100000,-0.100000)"
fill="#000000" stroke="none">
<path d="M646 3465 c-52 -18 -100 -67 -126 -126 -20 -48 -20 -57 -18 -766 l3
-718 27 -46 c15 -25 46 -59 69 -75 l42 -29 1836 -3 c1245 -2 1848 0 1872 7 40
12 100 66 126 114 17 30 18 85 18 762 l0 730 -22 41 c-28 53 -83 100 -130 113
-26 8 -615 11 -1848 11 -1514 -1 -1816 -3 -1849 -15z m3703 -45 c49 -25 88
-70 101 -120 7 -26 10 -272 8 -739 l-3 -699 -30 -43 c-17 -24 -46 -52 -65 -64
-35 -20 -39 -20 -1860 -20 -1821 0 -1825 0 -1860 20 -19 12 -48 40 -65 64
l-30 43 -3 706 c-3 774 -4 758 56 814 66 62 -87 57 1900 58 1780 0 1813 0
1851 -20z"/>
<path d="M822 3128 c-9 -9 -12 -100 -12 -365 0 -325 1 -353 18 -361 9 -5 105
-29 212 -52 107 -23 207 -49 222 -56 35 -18 76 -18 111 1 16 8 114 36 219 62
105 26 197 53 204 61 11 11 14 80 14 358 0 306 -2 345 -16 351 -9 3 -102 -8
-206 -26 -140 -23 -197 -37 -216 -51 -31 -25 -76 -26 -99 -2 -14 14 -67 27
-218 52 -110 18 -204 34 -210 36 -6 3 -16 -1 -23 -8z m578 -449 c0 -233 -4
-359 -10 -359 -6 0 -10 129 -10 366 0 241 3 363 10 359 6 -4 10 -137 10 -366z
m-140 168 c0 -257 -11 -527 -22 -527 -4 0 -8 78 -8 173 0 249 12 547 22 547 4
0 8 -87 8 -193z m498 121 c15 -15 16 -54 2 -63 -18 -11 -292 -57 -306 -51 -11
4 -21 64 -11 67 1 0 67 13 147 29 80 15 147 28 151 29 3 0 10 -4 17 -11z
m-418 -154 c17 -49 9 -169 -12 -190 -15 -15 -17 -14 -29 7 -19 33 -19 180 0
202 20 25 28 21 41 -19z"/>
<path d="M3300 2908 c-70 -14 -75 -17 -62 -30 8 -8 12 -56 12 -143 0 -87 -4
-135 -12 -143 -15 -15 -1 -19 75 -25 61 -4 72 2 62 32 -5 15 -13 18 -50 13
l-45 -5 0 42 c0 39 2 41 30 41 20 0 30 5 30 15 0 10 -10 15 -30 15 l-30 0 0
76 0 76 43 -4 c39 -2 42 -1 42 21 0 29 -7 31 -65 19z"/>
<path d="M3655 2900 c-4 -6 -2 -16 3 -23 14 -17 25 -277 12 -277 -5 0 -10 -7
-10 -15 0 -25 55 -18 90 11 45 38 60 75 60 144 0 68 -21 124 -54 145 -31 20
-92 29 -101 15z m77 -41 c63 -34 61 -205 -3 -240 -18 -9 -19 -4 -19 83 0 51
-3 110 -6 131 -7 40 -4 43 28 26z"/>
<path d="M2258 2893 c-2 -4 -1 -70 2 -146 5 -131 7 -138 32 -163 20 -21 32
-25 52 -20 43 11 56 51 56 180 0 67 4 117 10 121 16 10 1 25 -23 25 -22 0 -22
-3 -22 -135 0 -110 -3 -137 -16 -150 -15 -15 -18 -15 -32 -1 -18 18 -31 127
-26 223 3 57 1 68 -13 71 -9 2 -18 -1 -20 -5z"/>
<path d="M2647 2885 c-60 -19 -96 -102 -82 -192 5 -36 16 -56 45 -85 36 -36
42 -38 94 -37 63 2 72 9 54 39 -15 23 -38 27 -38 5 0 -20 -44 -20 -74 0 -61
41 -68 173 -11 223 31 26 80 29 89 6 5 -13 9 -14 21 -4 8 7 15 20 15 30 0 22
-65 31 -113 15z"/>
<path d="M2815 2892 c-6 -4 -10 -73 -10 -170 l0 -162 27 0 c27 0 27 1 21 47
l-6 47 29 -18 c16 -10 41 -30 56 -44 23 -21 30 -23 43 -12 18 15 20 44 3 37
-7 -2 -35 12 -63 31 -27 20 -51 37 -53 38 -5 3 90 148 106 161 8 7 12 19 9 28
-8 19 -47 20 -47 0 0 -8 -18 -43 -40 -77 l-41 -63 3 80 c2 64 0 80 -12 82 -8
2 -19 0 -25 -5z"/>
<path d="M3492 2883 c-5 -10 -22 -70 -37 -133 -23 -98 -34 -136 -53 -171 -5
-11 29 -20 50 -13 15 4 17 12 12 39 -5 30 -3 35 19 40 13 4 38 5 53 3 27 -3
29 -6 27 -40 -2 -35 0 -38 26 -38 36 0 45 9 27 29 -7 9 -20 45 -29 81 -30 118
-62 213 -74 217 -6 2 -16 -4 -21 -14z m42 -135 c9 -31 16 -59 16 -62 0 -3 -17
-6 -38 -6 l-39 0 15 70 c9 39 19 67 23 63 4 -5 14 -33 23 -65z"/>
<path d="M4016 2891 c-10 -15 -66 -244 -66 -267 0 -12 -8 -25 -17 -28 -27 -11
8 -40 37 -31 17 5 20 12 15 32 -8 35 11 53 57 53 31 0 40 -4 47 -22 5 -13 5
-27 0 -33 -16 -16 -10 -25 19 -25 34 0 45 9 32 25 -5 6 -25 67 -45 136 -19 68
-39 134 -45 147 -10 23 -25 29 -34 13z m54 -198 c0 -8 -14 -13 -35 -13 -39 0
-40 2 -24 70 17 77 20 78 40 15 10 -33 19 -66 19 -72z"/>
<path d="M2457 2883 c-4 -3 -2 -12 4 -19 7 -9 10 -64 7 -159 l-3 -145 29 0
c25 0 28 3 22 23 -13 49 -19 266 -8 280 14 17 6 27 -23 27 -12 0 -25 -3 -28
-7z"/>
<path d="M3025 2880 c-4 -7 -2 -16 4 -20 9 -5 12 -49 10 -156 l-2 -149 24 0
c22 0 24 3 21 44 l-4 44 36 -28 c20 -15 36 -34 36 -41 0 -17 10 -17 33 0 22
17 22 36 -1 36 -10 0 -31 13 -46 29 l-27 28 36 36 c30 30 35 42 35 80 0 66
-30 98 -97 104 -34 4 -53 1 -58 -7z m109 -46 c25 -25 20 -70 -13 -106 -16 -18
-33 -29 -37 -25 -5 4 -10 39 -12 78 -4 68 -4 69 21 69 14 0 33 -7 41 -16z"/>
<path d="M4183 2868 c3 -13 9 -80 13 -149 5 -91 4 -128 -5 -133 -17 -11 -3
-26 23 -26 29 0 39 10 25 26 -7 8 -9 65 -7 158 l3 146 -29 0 c-24 0 -27 -3
-23 -22z"/>
<path d="M1982 2855 c-114 -96 -58 -285 85 -285 24 0 53 5 64 11 16 8 25 7 39
-6 21 -19 39 -2 20 20 -9 10 -7 25 7 64 24 69 9 131 -47 184 -35 33 -45 37
-89 37 -38 0 -56 -6 -79 -25z m128 -20 c38 -20 63 -69 63 -123 0 -53 -17 -74
-37 -46 -12 15 -17 16 -27 7 -10 -10 -9 -17 5 -32 18 -20 18 -21 -7 -32 -88
-40 -183 68 -144 163 30 73 84 96 147 63z"/>
<path d="M2450 2415 c0 -77 4 -125 10 -125 6 0 10 9 10 19 0 30 16 33 28 6 7
-14 16 -25 22 -25 6 0 4 13 -6 31 -11 23 -13 34 -5 42 6 6 11 18 11 27 0 10
-9 5 -25 -15 l-24 -30 -1 98 c0 58 -4 97 -10 97 -6 0 -10 -48 -10 -125z"/>
<path d="M3030 2470 c0 -63 -2 -70 -20 -70 -22 0 -40 -28 -40 -63 0 -31 20
-48 54 -45 l26 2 0 123 c0 75 -4 123 -10 123 -6 0 -10 -30 -10 -70z m-2 -122
c-2 -30 -8 -43 -18 -43 -19 0 -26 51 -9 71 21 25 30 15 27 -28z"/>
<path d="M3810 2415 c0 -77 4 -125 10 -125 6 0 10 48 10 125 0 77 -4 125 -10
125 -6 0 -10 -48 -10 -125z"/>
<path d="M2160 2405 c0 -70 4 -115 10 -115 6 0 10 36 11 88 l1 87 25 -79 c15
-50 28 -75 34 -69 5 5 18 39 29 74 l18 64 1 -82 c1 -48 5 -83 11 -83 6 0 10
45 10 116 0 137 -13 147 -44 32 -12 -42 -24 -79 -27 -82 -3 -3 -16 32 -30 79
-34 123 -49 114 -49 -30z"/>
<path d="M3085 2441 c-6 -11 9 -23 19 -14 9 9 7 23 -3 23 -6 0 -12 -4 -16 -9z"/>
<path d="M3492 2441 c4 -13 18 -16 19 -4 0 4 -5 9 -11 12 -7 2 -11 -2 -8 -8z"/>
<path d="M3302 2424 c-5 -8 -20 -21 -33 -28 -22 -11 -24 -18 -25 -84 -1 -78 8
-96 48 -90 44 6 31 78 -13 78 -29 0 -23 14 12 27 29 11 31 14 24 52 -4 27 -3
41 4 41 6 0 11 5 11 10 0 16 -18 12 -28 -6z m-4 -62 c3 -17 -2 -22 -17 -22
-14 0 -21 6 -21 18 0 38 33 41 38 4z m7 -107 c0 -30 -39 -27 -43 3 -3 20 0 23
20 20 15 -2 23 -10 23 -23z"/>
<path d="M2357 2393 c-4 -3 -7 -13 -7 -22 1 -13 3 -13 15 3 15 19 35 14 35
-10 0 -8 -8 -14 -19 -14 -24 0 -45 -25 -37 -45 3 -9 18 -15 41 -15 33 0 35 2
35 33 0 55 -10 77 -34 77 -13 0 -26 -3 -29 -7z m43 -68 c0 -16 -27 -32 -37
-22 -3 4 -3 13 0 22 8 20 37 20 37 0z"/>
<path d="M2561 2386 c-7 -8 -11 -32 -9 -53 3 -35 6 -38 32 -38 16 0 31 6 34
13 3 11 1 11 -17 0 -18 -11 -23 -11 -31 2 -16 24 -12 30 21 30 27 0 30 3 27
28 -3 31 -37 42 -57 18z m43 -12 c9 -23 8 -24 -19 -24 -23 0 -24 2 -15 20 13
24 26 26 34 4z"/>
<path d="M2711 2345 c1 -61 2 -62 13 -13 4 15 16 37 28 48 18 16 19 20 5 20
-8 0 -19 -5 -23 -11 -4 -8 -9 -7 -15 2 -5 9 -8 -9 -8 -46z"/>
<path d="M2784 2374 c-25 -38 -9 -79 30 -79 17 0 31 6 34 15 5 13 3 13 -11 1
-20 -16 -47 -8 -47 14 0 10 10 15 30 15 19 0 30 5 30 14 0 50 -39 62 -66 20z
m46 -10 c0 -8 -9 -14 -20 -14 -22 0 -26 10 -8 28 13 13 28 7 28 -14z"/>
<path d="M2887 2393 c-4 -3 -7 -13 -7 -22 1 -13 3 -13 15 3 15 19 35 14 35
-10 0 -8 -8 -14 -19 -14 -24 0 -45 -25 -37 -45 3 -9 18 -15 41 -15 33 0 35 2
35 33 0 55 -10 77 -34 77 -13 0 -26 -3 -29 -7z m43 -68 c0 -16 -27 -32 -37
-22 -3 4 -3 13 0 22 8 20 37 20 37 0z"/>
<path d="M3093 2345 c0 -33 2 -45 4 -27 2 18 2 45 0 60 -2 15 -4 0 -4 -33z"/>
<path d="M3140 2344 c0 -64 17 -73 22 -12 2 31 8 44 21 46 14 3 17 -4 17 -44
0 -28 4 -44 9 -38 5 5 6 29 2 54 -6 42 -8 45 -38 47 l-33 1 0 -54z"/>
<path d="M3407 2394 c-15 -15 -6 -42 18 -58 26 -17 26 -36 -1 -36 -8 0 -14 8
-14 17 0 13 -3 14 -12 5 -17 -17 3 -35 33 -30 34 4 36 35 4 60 -19 14 -23 24
-16 31 8 8 15 5 26 -9 16 -19 16 -19 13 1 -3 20 -37 32 -51 19z"/>
<path d="M3497 2393 c-11 -10 -8 -103 3 -103 6 0 10 25 10 55 0 56 -1 60 -13
48z"/>
<path d="M3550 2342 c0 -36 4 -51 11 -46 6 3 8 15 5 27 -5 22 9 57 24 57 6 0
10 -20 10 -45 0 -57 18 -59 22 -3 4 59 28 63 28 4 0 -25 5 -46 10 -46 13 0 13
80 0 100 -8 12 -13 13 -29 3 -10 -6 -22 -9 -26 -5 -4 4 -18 7 -31 7 -22 1 -24
-3 -24 -53z"/>
<path d="M3705 2392 c-10 -10 -5 -172 5 -172 6 0 10 16 10 35 0 24 5 35 15 35
22 0 47 45 43 77 -3 24 -8 28 -35 29 -18 1 -35 -1 -38 -4z m63 -30 c2 -12 -7
-31 -20 -44 l-23 -23 -3 33 c-5 54 39 86 46 34z"/>
<path d="M3870 2381 c-24 -46 -6 -91 36 -91 24 0 41 16 29 28 -3 3 -10 0 -15
-7 -10 -17 -40 -7 -40 14 0 10 10 15 30 15 22 0 30 5 30 18 0 41 -51 57 -70
23z m48 -14 c2 -12 -3 -17 -17 -17 -12 0 -21 6 -21 13 0 31 32 34 38 4z"/>
<path d="M3971 2345 c1 -61 2 -62 13 -13 4 15 16 37 28 48 18 16 19 20 5 20
-8 0 -19 -5 -23 -11 -4 -8 -9 -7 -15 2 -5 9 -8 -9 -8 -46z"/>
<path d="M1014 2184 c-120 -20 -192 -49 -200 -81 -8 -31 7 -44 84 -73 89 -34
194 -44 422 -44 236 1 348 16 428 56 59 30 72 50 48 77 -24 26 -93 49 -203 67
-114 18 -467 17 -579 -2z"/>
</g>
</svg>
